<mxfile host="app.diagrams.net" agent="Mozilla/5.0 (Windows NT 10.0; Win64; x64) AppleWebKit/537.36 (KHTML, like Gecko) Chrome/134.0.0.0 Safari/537.36" version="26.2.8">
  <diagram name="PÃ¡gina-1" id="rvEWbdLoJIgpr64gUZvC">
    <mxGraphModel dx="2076" dy="664" grid="1" gridSize="10" guides="1" tooltips="1" connect="1" arrows="1" fold="1" page="1" pageScale="1" pageWidth="827" pageHeight="1169" math="0" shadow="0">
      <root>
        <mxCell id="0" />
        <mxCell id="1" parent="0" />
        <mxCell id="NHq4z3sjqa0FjlhkMXZz-1" value="Cliente" style="rounded=0;whiteSpace=wrap;html=1;strokeWidth=2;shadow=1;fontSize=18;" vertex="1" parent="1">
          <mxGeometry x="145" y="150" width="120" height="60" as="geometry" />
        </mxCell>
        <mxCell id="NHq4z3sjqa0FjlhkMXZz-2" value="" style="endArrow=none;html=1;rounded=0;exitX=0.5;exitY=0;exitDx=0;exitDy=0;entryX=0.5;entryY=1;entryDx=0;entryDy=0;strokeWidth=2;" edge="1" parent="1" source="NHq4z3sjqa0FjlhkMXZz-1" target="NHq4z3sjqa0FjlhkMXZz-12">
          <mxGeometry width="50" height="50" relative="1" as="geometry">
            <mxPoint x="380" y="40" as="sourcePoint" />
            <mxPoint x="55" y="110" as="targetPoint" />
          </mxGeometry>
        </mxCell>
        <mxCell id="NHq4z3sjqa0FjlhkMXZz-3" value="" style="endArrow=none;html=1;rounded=0;exitX=0.5;exitY=0;exitDx=0;exitDy=0;entryX=0.5;entryY=1;entryDx=0;entryDy=0;strokeWidth=2;" edge="1" parent="1" source="NHq4z3sjqa0FjlhkMXZz-1" target="NHq4z3sjqa0FjlhkMXZz-11">
          <mxGeometry width="50" height="50" relative="1" as="geometry">
            <mxPoint x="202" y="160" as="sourcePoint" />
            <mxPoint x="130" y="110" as="targetPoint" />
          </mxGeometry>
        </mxCell>
        <mxCell id="NHq4z3sjqa0FjlhkMXZz-5" value="" style="endArrow=none;html=1;rounded=0;exitX=0.5;exitY=0;exitDx=0;exitDy=0;entryX=0.5;entryY=1;entryDx=0;entryDy=0;strokeWidth=2;" edge="1" parent="1" source="NHq4z3sjqa0FjlhkMXZz-1" target="NHq4z3sjqa0FjlhkMXZz-9">
          <mxGeometry width="50" height="50" relative="1" as="geometry">
            <mxPoint x="222" y="180" as="sourcePoint" />
            <mxPoint x="281" y="110" as="targetPoint" />
          </mxGeometry>
        </mxCell>
        <mxCell id="NHq4z3sjqa0FjlhkMXZz-6" value="" style="endArrow=none;html=1;rounded=0;exitX=0.5;exitY=0;exitDx=0;exitDy=0;entryX=0.5;entryY=1;entryDx=0;entryDy=0;strokeWidth=2;" edge="1" parent="1" source="NHq4z3sjqa0FjlhkMXZz-1" target="NHq4z3sjqa0FjlhkMXZz-8">
          <mxGeometry width="50" height="50" relative="1" as="geometry">
            <mxPoint x="232" y="190" as="sourcePoint" />
            <mxPoint x="355" y="110" as="targetPoint" />
          </mxGeometry>
        </mxCell>
        <mxCell id="NHq4z3sjqa0FjlhkMXZz-7" value="" style="endArrow=none;html=1;rounded=0;exitX=0.5;exitY=0;exitDx=0;exitDy=0;entryX=0.5;entryY=1;entryDx=0;entryDy=0;strokeWidth=2;" edge="1" parent="1" target="NHq4z3sjqa0FjlhkMXZz-1">
          <mxGeometry width="50" height="50" relative="1" as="geometry">
            <mxPoint x="365.9999999999998" y="259.9999999999999" as="sourcePoint" />
            <mxPoint x="200" y="280" as="targetPoint" />
          </mxGeometry>
        </mxCell>
        <mxCell id="NHq4z3sjqa0FjlhkMXZz-8" value="LimiteCredito" style="ellipse;whiteSpace=wrap;html=1;strokeWidth=2;shadow=1;" vertex="1" parent="1">
          <mxGeometry x="253.5" y="70" width="78" height="40" as="geometry" />
        </mxCell>
        <mxCell id="NHq4z3sjqa0FjlhkMXZz-9" value="Saldo" style="ellipse;whiteSpace=wrap;html=1;strokeWidth=2;shadow=1;" vertex="1" parent="1">
          <mxGeometry x="173" y="70" width="70" height="40" as="geometry" />
        </mxCell>
        <mxCell id="NHq4z3sjqa0FjlhkMXZz-10" value="DireccionEnvio" style="ellipse;whiteSpace=wrap;html=1;strokeWidth=2;shadow=1;" vertex="1" parent="1">
          <mxGeometry x="153.5" y="640" width="100" height="50" as="geometry" />
        </mxCell>
        <mxCell id="NHq4z3sjqa0FjlhkMXZz-11" value="nombre" style="ellipse;whiteSpace=wrap;html=1;strokeWidth=2;shadow=1;" vertex="1" parent="1">
          <mxGeometry x="95" y="70" width="70" height="40" as="geometry" />
        </mxCell>
        <mxCell id="NHq4z3sjqa0FjlhkMXZz-12" value="idCliente" style="ellipse;whiteSpace=wrap;html=1;strokeWidth=2;shadow=1;" vertex="1" parent="1">
          <mxGeometry x="20" y="70" width="70" height="40" as="geometry" />
        </mxCell>
        <mxCell id="NHq4z3sjqa0FjlhkMXZz-13" value="1" style="text;html=1;align=center;verticalAlign=middle;whiteSpace=wrap;rounded=0;fontSize=16;fontStyle=1" vertex="1" parent="1">
          <mxGeometry x="266" y="190" width="26" height="30" as="geometry" />
        </mxCell>
        <mxCell id="NHq4z3sjqa0FjlhkMXZz-14" value="Articulo" style="rounded=0;whiteSpace=wrap;html=1;strokeWidth=2;shadow=1;fontSize=18;" vertex="1" parent="1">
          <mxGeometry x="443" y="150" width="120" height="60" as="geometry" />
        </mxCell>
        <mxCell id="NHq4z3sjqa0FjlhkMXZz-16" value="" style="endArrow=none;html=1;rounded=0;exitX=0.5;exitY=0;exitDx=0;exitDy=0;entryX=0.5;entryY=1;entryDx=0;entryDy=0;strokeWidth=2;" edge="1" parent="1" target="NHq4z3sjqa0FjlhkMXZz-17" source="NHq4z3sjqa0FjlhkMXZz-14">
          <mxGeometry width="50" height="50" relative="1" as="geometry">
            <mxPoint x="607" y="150" as="sourcePoint" />
            <mxPoint x="457" y="110" as="targetPoint" />
          </mxGeometry>
        </mxCell>
        <mxCell id="NHq4z3sjqa0FjlhkMXZz-17" value="idArticulo" style="ellipse;whiteSpace=wrap;html=1;strokeWidth=2;shadow=1;" vertex="1" parent="1">
          <mxGeometry x="423" y="70" width="70" height="40" as="geometry" />
        </mxCell>
        <mxCell id="NHq4z3sjqa0FjlhkMXZz-20" value="" style="endArrow=none;html=1;rounded=0;exitX=0.5;exitY=0;exitDx=0;exitDy=0;entryX=0.5;entryY=1;entryDx=0;entryDy=0;strokeWidth=2;" edge="1" parent="1" target="NHq4z3sjqa0FjlhkMXZz-21" source="NHq4z3sjqa0FjlhkMXZz-14">
          <mxGeometry width="50" height="50" relative="1" as="geometry">
            <mxPoint x="703" y="150" as="sourcePoint" />
            <mxPoint x="627" y="110" as="targetPoint" />
          </mxGeometry>
        </mxCell>
        <mxCell id="NHq4z3sjqa0FjlhkMXZz-21" value="Descripcion" style="ellipse;whiteSpace=wrap;html=1;strokeWidth=2;shadow=1;" vertex="1" parent="1">
          <mxGeometry x="523" y="70" width="70" height="40" as="geometry" />
        </mxCell>
        <mxCell id="NHq4z3sjqa0FjlhkMXZz-24" value="idCliente" style="ellipse;whiteSpace=wrap;html=1;strokeWidth=2;shadow=1;" vertex="1" parent="1">
          <mxGeometry x="43.5" y="640" width="100" height="50" as="geometry" />
        </mxCell>
        <mxCell id="NHq4z3sjqa0FjlhkMXZz-25" value="FechaPedido" style="ellipse;whiteSpace=wrap;html=1;strokeWidth=2;shadow=1;" vertex="1" parent="1">
          <mxGeometry x="266.5" y="640" width="100" height="50" as="geometry" />
        </mxCell>
        <mxCell id="NHq4z3sjqa0FjlhkMXZz-26" value="Cuerpo" style="rounded=0;whiteSpace=wrap;html=1;strokeWidth=2;shadow=1;fontSize=18;" vertex="1" parent="1">
          <mxGeometry x="454" y="540" width="120" height="60" as="geometry" />
        </mxCell>
        <mxCell id="NHq4z3sjqa0FjlhkMXZz-27" value="" style="endArrow=none;html=1;rounded=0;exitX=0;exitY=0.5;exitDx=0;exitDy=0;entryX=0.5;entryY=1;entryDx=0;entryDy=0;strokeWidth=2;" edge="1" parent="1" source="NHq4z3sjqa0FjlhkMXZz-26">
          <mxGeometry width="50" height="50" relative="1" as="geometry">
            <mxPoint x="391.5" y="490" as="sourcePoint" />
            <mxPoint x="366" y="520" as="targetPoint" />
          </mxGeometry>
        </mxCell>
        <mxCell id="NHq4z3sjqa0FjlhkMXZz-28" value="*" style="text;html=1;align=center;verticalAlign=middle;whiteSpace=wrap;rounded=0;fontSize=16;fontStyle=1" vertex="1" parent="1">
          <mxGeometry x="428" y="510" width="26" height="30" as="geometry" />
        </mxCell>
        <mxCell id="NHq4z3sjqa0FjlhkMXZz-29" value="NumeroArticulo" style="ellipse;whiteSpace=wrap;html=1;strokeWidth=2;shadow=1;" vertex="1" parent="1">
          <mxGeometry x="408" y="636" width="100" height="50" as="geometry" />
        </mxCell>
        <mxCell id="NHq4z3sjqa0FjlhkMXZz-30" value="Cantidad" style="ellipse;whiteSpace=wrap;html=1;strokeWidth=2;shadow=1;" vertex="1" parent="1">
          <mxGeometry x="520" y="636" width="100" height="50" as="geometry" />
        </mxCell>
        <mxCell id="NHq4z3sjqa0FjlhkMXZz-32" value="" style="endArrow=none;html=1;rounded=0;exitX=0.5;exitY=1;exitDx=0;exitDy=0;entryX=0.5;entryY=0;entryDx=0;entryDy=0;strokeWidth=2;" edge="1" parent="1" source="NHq4z3sjqa0FjlhkMXZz-14">
          <mxGeometry width="50" height="50" relative="1" as="geometry">
            <mxPoint x="573.5" y="280" as="sourcePoint" />
            <mxPoint x="365.9999999999998" y="259.9999999999999" as="targetPoint" />
          </mxGeometry>
        </mxCell>
        <mxCell id="NHq4z3sjqa0FjlhkMXZz-33" value="*" style="text;html=1;align=center;verticalAlign=middle;whiteSpace=wrap;rounded=0;fontSize=16;fontStyle=1" vertex="1" parent="1">
          <mxGeometry x="417" y="190" width="26" height="30" as="geometry" />
        </mxCell>
        <mxCell id="NHq4z3sjqa0FjlhkMXZz-34" value="Fabrica" style="rounded=0;whiteSpace=wrap;html=1;strokeWidth=2;shadow=1;fontSize=18;" vertex="1" parent="1">
          <mxGeometry x="740" y="150" width="120" height="60" as="geometry" />
        </mxCell>
        <mxCell id="NHq4z3sjqa0FjlhkMXZz-35" value="" style="endArrow=none;html=1;rounded=0;entryX=0.5;entryY=1;entryDx=0;entryDy=0;strokeWidth=2;exitX=0.5;exitY=0;exitDx=0;exitDy=0;" edge="1" parent="1" target="NHq4z3sjqa0FjlhkMXZz-36" source="NHq4z3sjqa0FjlhkMXZz-34">
          <mxGeometry width="50" height="50" relative="1" as="geometry">
            <mxPoint x="800" y="150" as="sourcePoint" />
            <mxPoint x="746" y="110" as="targetPoint" />
          </mxGeometry>
        </mxCell>
        <mxCell id="NHq4z3sjqa0FjlhkMXZz-36" value="idFabrica" style="ellipse;whiteSpace=wrap;html=1;strokeWidth=2;shadow=1;" vertex="1" parent="1">
          <mxGeometry x="686" y="70" width="70" height="40" as="geometry" />
        </mxCell>
        <mxCell id="NHq4z3sjqa0FjlhkMXZz-37" value="Telefono" style="ellipse;whiteSpace=wrap;html=1;strokeWidth=2;shadow=1;" vertex="1" parent="1">
          <mxGeometry x="765" y="70" width="70" height="40" as="geometry" />
        </mxCell>
        <mxCell id="NHq4z3sjqa0FjlhkMXZz-38" value="Stock" style="ellipse;whiteSpace=wrap;html=1;strokeWidth=2;shadow=1;" vertex="1" parent="1">
          <mxGeometry x="840" y="70" width="70" height="40" as="geometry" />
        </mxCell>
        <mxCell id="NHq4z3sjqa0FjlhkMXZz-39" value="" style="endArrow=none;html=1;rounded=0;exitX=0.5;exitY=0;exitDx=0;exitDy=0;entryX=0.5;entryY=1;entryDx=0;entryDy=0;strokeWidth=2;" edge="1" parent="1" source="NHq4z3sjqa0FjlhkMXZz-34" target="NHq4z3sjqa0FjlhkMXZz-37">
          <mxGeometry width="50" height="50" relative="1" as="geometry">
            <mxPoint x="737" y="160" as="sourcePoint" />
            <mxPoint x="680" y="120" as="targetPoint" />
          </mxGeometry>
        </mxCell>
        <mxCell id="NHq4z3sjqa0FjlhkMXZz-40" value="" style="endArrow=none;html=1;rounded=0;exitX=0.5;exitY=0;exitDx=0;exitDy=0;entryX=0.5;entryY=1;entryDx=0;entryDy=0;strokeWidth=2;" edge="1" parent="1" source="NHq4z3sjqa0FjlhkMXZz-34" target="NHq4z3sjqa0FjlhkMXZz-38">
          <mxGeometry width="50" height="50" relative="1" as="geometry">
            <mxPoint x="740" y="160" as="sourcePoint" />
            <mxPoint x="683" y="120" as="targetPoint" />
          </mxGeometry>
        </mxCell>
        <mxCell id="NHq4z3sjqa0FjlhkMXZz-41" value="" style="endArrow=none;html=1;rounded=0;exitX=0;exitY=0.5;exitDx=0;exitDy=0;entryX=1;entryY=0.5;entryDx=0;entryDy=0;strokeWidth=2;" edge="1" parent="1" source="NHq4z3sjqa0FjlhkMXZz-34" target="NHq4z3sjqa0FjlhkMXZz-14">
          <mxGeometry width="50" height="50" relative="1" as="geometry">
            <mxPoint x="656" y="210" as="sourcePoint" />
            <mxPoint x="526" y="310" as="targetPoint" />
          </mxGeometry>
        </mxCell>
        <mxCell id="NHq4z3sjqa0FjlhkMXZz-42" value="*" style="text;html=1;align=center;verticalAlign=middle;whiteSpace=wrap;rounded=0;fontSize=16;fontStyle=1" vertex="1" parent="1">
          <mxGeometry x="714" y="150" width="26" height="30" as="geometry" />
        </mxCell>
        <mxCell id="NHq4z3sjqa0FjlhkMXZz-43" value="Pedido" style="rounded=0;whiteSpace=wrap;html=1;strokeWidth=2;shadow=1;fontSize=18;" vertex="1" parent="1">
          <mxGeometry x="306" y="370" width="120" height="60" as="geometry" />
        </mxCell>
        <mxCell id="NHq4z3sjqa0FjlhkMXZz-44" value="COMPRA" style="rhombus;whiteSpace=wrap;html=1;fillColor=#647687;fontColor=#ffffff;strokeColor=#314354;shadow=1;strokeWidth=2;fontSize=18;fontStyle=0" vertex="1" parent="1">
          <mxGeometry x="306" y="210" width="120" height="130" as="geometry" />
        </mxCell>
        <mxCell id="NHq4z3sjqa0FjlhkMXZz-45" value="Cabecera" style="rounded=0;whiteSpace=wrap;html=1;strokeWidth=2;shadow=1;fontSize=18;" vertex="1" parent="1">
          <mxGeometry x="160" y="540" width="120" height="60" as="geometry" />
        </mxCell>
        <mxCell id="NHq4z3sjqa0FjlhkMXZz-46" value="" style="endArrow=none;html=1;rounded=0;entryX=1;entryY=0.5;entryDx=0;entryDy=0;strokeWidth=2;" edge="1" parent="1" target="NHq4z3sjqa0FjlhkMXZz-45">
          <mxGeometry width="50" height="50" relative="1" as="geometry">
            <mxPoint x="370" y="520" as="sourcePoint" />
            <mxPoint x="378" y="530" as="targetPoint" />
          </mxGeometry>
        </mxCell>
        <mxCell id="NHq4z3sjqa0FjlhkMXZz-47" value="1" style="text;html=1;align=center;verticalAlign=middle;whiteSpace=wrap;rounded=0;fontSize=16;fontStyle=1" vertex="1" parent="1">
          <mxGeometry x="283.08" y="510" width="26" height="30" as="geometry" />
        </mxCell>
        <mxCell id="NHq4z3sjqa0FjlhkMXZz-48" value="" style="endArrow=none;html=1;rounded=0;entryX=0.5;entryY=1;entryDx=0;entryDy=0;exitX=0.5;exitY=0;exitDx=0;exitDy=0;" edge="1" parent="1" source="NHq4z3sjqa0FjlhkMXZz-43" target="NHq4z3sjqa0FjlhkMXZz-44">
          <mxGeometry width="50" height="50" relative="1" as="geometry">
            <mxPoint x="420" y="410" as="sourcePoint" />
            <mxPoint x="470" y="360" as="targetPoint" />
          </mxGeometry>
        </mxCell>
        <mxCell id="NHq4z3sjqa0FjlhkMXZz-49" value="" style="endArrow=none;html=1;rounded=0;entryX=0.5;entryY=0;entryDx=0;entryDy=0;strokeWidth=2;exitX=0.5;exitY=1;exitDx=0;exitDy=0;" edge="1" parent="1" source="NHq4z3sjqa0FjlhkMXZz-45" target="NHq4z3sjqa0FjlhkMXZz-24">
          <mxGeometry width="50" height="50" relative="1" as="geometry">
            <mxPoint x="380" y="530" as="sourcePoint" />
            <mxPoint x="290" y="580" as="targetPoint" />
          </mxGeometry>
        </mxCell>
        <mxCell id="NHq4z3sjqa0FjlhkMXZz-50" value="" style="endArrow=none;html=1;rounded=0;entryX=0.5;entryY=0;entryDx=0;entryDy=0;strokeWidth=2;exitX=0.5;exitY=1;exitDx=0;exitDy=0;" edge="1" parent="1" source="NHq4z3sjqa0FjlhkMXZz-45" target="NHq4z3sjqa0FjlhkMXZz-10">
          <mxGeometry width="50" height="50" relative="1" as="geometry">
            <mxPoint x="390" y="540" as="sourcePoint" />
            <mxPoint x="300" y="590" as="targetPoint" />
          </mxGeometry>
        </mxCell>
        <mxCell id="NHq4z3sjqa0FjlhkMXZz-51" value="" style="endArrow=none;html=1;rounded=0;entryX=0.5;entryY=0;entryDx=0;entryDy=0;strokeWidth=2;exitX=0.5;exitY=1;exitDx=0;exitDy=0;" edge="1" parent="1" source="NHq4z3sjqa0FjlhkMXZz-45" target="NHq4z3sjqa0FjlhkMXZz-25">
          <mxGeometry width="50" height="50" relative="1" as="geometry">
            <mxPoint x="400" y="550" as="sourcePoint" />
            <mxPoint x="310" y="600" as="targetPoint" />
          </mxGeometry>
        </mxCell>
        <mxCell id="NHq4z3sjqa0FjlhkMXZz-52" value="" style="endArrow=none;html=1;rounded=0;exitX=0.5;exitY=1;exitDx=0;exitDy=0;entryX=0.5;entryY=0;entryDx=0;entryDy=0;strokeWidth=2;" edge="1" parent="1" source="NHq4z3sjqa0FjlhkMXZz-26" target="NHq4z3sjqa0FjlhkMXZz-29">
          <mxGeometry width="50" height="50" relative="1" as="geometry">
            <mxPoint x="708" y="620" as="sourcePoint" />
            <mxPoint x="620" y="570" as="targetPoint" />
          </mxGeometry>
        </mxCell>
        <mxCell id="NHq4z3sjqa0FjlhkMXZz-53" value="" style="endArrow=none;html=1;rounded=0;exitX=0.5;exitY=1;exitDx=0;exitDy=0;entryX=0.5;entryY=0;entryDx=0;entryDy=0;strokeWidth=2;" edge="1" parent="1" source="NHq4z3sjqa0FjlhkMXZz-26" target="NHq4z3sjqa0FjlhkMXZz-30">
          <mxGeometry width="50" height="50" relative="1" as="geometry">
            <mxPoint x="524" y="610" as="sourcePoint" />
            <mxPoint x="468" y="646" as="targetPoint" />
          </mxGeometry>
        </mxCell>
        <mxCell id="NHq4z3sjqa0FjlhkMXZz-54" value="Direccion" style="rounded=0;whiteSpace=wrap;html=1;strokeWidth=2;shadow=1;fontSize=18;" vertex="1" parent="1">
          <mxGeometry x="80" y="270" width="120" height="60" as="geometry" />
        </mxCell>
        <mxCell id="NHq4z3sjqa0FjlhkMXZz-56" value="Comuna" style="ellipse;whiteSpace=wrap;html=1;strokeWidth=2;shadow=1;" vertex="1" parent="1">
          <mxGeometry x="130" y="360" width="70" height="40" as="geometry" />
        </mxCell>
        <mxCell id="NHq4z3sjqa0FjlhkMXZz-57" value="numero" style="ellipse;whiteSpace=wrap;html=1;strokeWidth=2;shadow=1;" vertex="1" parent="1">
          <mxGeometry x="50" y="360" width="70" height="40" as="geometry" />
        </mxCell>
        <mxCell id="NHq4z3sjqa0FjlhkMXZz-58" value="Calle" style="ellipse;whiteSpace=wrap;html=1;strokeWidth=2;shadow=1;" vertex="1" parent="1">
          <mxGeometry x="-26.5" y="360" width="70" height="40" as="geometry" />
        </mxCell>
        <mxCell id="NHq4z3sjqa0FjlhkMXZz-59" value="Ciudad" style="ellipse;whiteSpace=wrap;html=1;strokeWidth=2;shadow=1;" vertex="1" parent="1">
          <mxGeometry x="210" y="360" width="70" height="40" as="geometry" />
        </mxCell>
        <mxCell id="NHq4z3sjqa0FjlhkMXZz-61" value="" style="endArrow=none;html=1;rounded=0;exitX=0.5;exitY=1;exitDx=0;exitDy=0;entryX=0.5;entryY=0;entryDx=0;entryDy=0;strokeWidth=2;" edge="1" parent="1" source="NHq4z3sjqa0FjlhkMXZz-1" target="NHq4z3sjqa0FjlhkMXZz-54">
          <mxGeometry width="50" height="50" relative="1" as="geometry">
            <mxPoint x="396.9999999999998" y="349.9999999999999" as="sourcePoint" />
            <mxPoint x="236" y="300" as="targetPoint" />
          </mxGeometry>
        </mxCell>
        <mxCell id="NHq4z3sjqa0FjlhkMXZz-62" value="*" style="text;html=1;align=center;verticalAlign=middle;whiteSpace=wrap;rounded=0;fontSize=16;fontStyle=1" vertex="1" parent="1">
          <mxGeometry x="153.5" y="210" width="26" height="30" as="geometry" />
        </mxCell>
        <mxCell id="NHq4z3sjqa0FjlhkMXZz-63" value="" style="endArrow=none;html=1;rounded=0;exitX=0.5;exitY=0;exitDx=0;exitDy=0;entryX=0.5;entryY=1;entryDx=0;entryDy=0;strokeWidth=2;" edge="1" parent="1" source="NHq4z3sjqa0FjlhkMXZz-58" target="NHq4z3sjqa0FjlhkMXZz-54">
          <mxGeometry width="50" height="50" relative="1" as="geometry">
            <mxPoint x="31" y="310" as="sourcePoint" />
            <mxPoint x="-14" y="270" as="targetPoint" />
          </mxGeometry>
        </mxCell>
        <mxCell id="NHq4z3sjqa0FjlhkMXZz-64" value="" style="endArrow=none;html=1;rounded=0;exitX=0.5;exitY=0;exitDx=0;exitDy=0;entryX=0.5;entryY=1;entryDx=0;entryDy=0;strokeWidth=2;" edge="1" parent="1" source="NHq4z3sjqa0FjlhkMXZz-57" target="NHq4z3sjqa0FjlhkMXZz-54">
          <mxGeometry width="50" height="50" relative="1" as="geometry">
            <mxPoint x="-41" y="280" as="sourcePoint" />
            <mxPoint x="90" y="250" as="targetPoint" />
          </mxGeometry>
        </mxCell>
        <mxCell id="NHq4z3sjqa0FjlhkMXZz-65" value="" style="endArrow=none;html=1;rounded=0;exitX=0.5;exitY=0;exitDx=0;exitDy=0;entryX=0.5;entryY=1;entryDx=0;entryDy=0;strokeWidth=2;" edge="1" parent="1" source="NHq4z3sjqa0FjlhkMXZz-56" target="NHq4z3sjqa0FjlhkMXZz-54">
          <mxGeometry width="50" height="50" relative="1" as="geometry">
            <mxPoint x="243" y="330" as="sourcePoint" />
            <mxPoint x="298" y="300" as="targetPoint" />
          </mxGeometry>
        </mxCell>
        <mxCell id="NHq4z3sjqa0FjlhkMXZz-66" value="" style="endArrow=none;html=1;rounded=0;exitX=0.5;exitY=0;exitDx=0;exitDy=0;entryX=0.5;entryY=1;entryDx=0;entryDy=0;strokeWidth=2;" edge="1" parent="1" source="NHq4z3sjqa0FjlhkMXZz-59" target="NHq4z3sjqa0FjlhkMXZz-54">
          <mxGeometry width="50" height="50" relative="1" as="geometry">
            <mxPoint x="253.5" y="330" as="sourcePoint" />
            <mxPoint x="228.5" y="300" as="targetPoint" />
          </mxGeometry>
        </mxCell>
        <mxCell id="NHq4z3sjqa0FjlhkMXZz-67" value="Provee" style="rhombus;whiteSpace=wrap;html=1;fillColor=#647687;fontColor=#ffffff;strokeColor=#314354;shadow=1;strokeWidth=2;fontSize=18;fontStyle=0" vertex="1" parent="1">
          <mxGeometry x="609" y="127.5" width="96.92" height="105" as="geometry" />
        </mxCell>
        <mxCell id="NHq4z3sjqa0FjlhkMXZz-69" value="Componer" style="rhombus;whiteSpace=wrap;html=1;fillColor=#647687;fontColor=#ffffff;strokeColor=#314354;shadow=1;strokeWidth=2;fontSize=18;fontStyle=0" vertex="1" parent="1">
          <mxGeometry x="309.08" y="470" width="116.92" height="110" as="geometry" />
        </mxCell>
        <mxCell id="NHq4z3sjqa0FjlhkMXZz-70" value="" style="endArrow=none;html=1;rounded=0;entryX=0.5;entryY=0;entryDx=0;entryDy=0;strokeWidth=2;exitX=0.5;exitY=1;exitDx=0;exitDy=0;" edge="1" parent="1" source="NHq4z3sjqa0FjlhkMXZz-43" target="NHq4z3sjqa0FjlhkMXZz-69">
          <mxGeometry width="50" height="50" relative="1" as="geometry">
            <mxPoint x="380" y="530" as="sourcePoint" />
            <mxPoint x="290" y="580" as="targetPoint" />
          </mxGeometry>
        </mxCell>
      </root>
    </mxGraphModel>
  </diagram>
</mxfile>
